<mxfile host="65bd71144e">
    <diagram id="anNJu8Hl_BTCjO3it_Hd" name="Page-1">
        <mxGraphModel dx="792" dy="398" grid="1" gridSize="10" guides="1" tooltips="1" connect="1" arrows="1" fold="1" page="1" pageScale="1" pageWidth="850" pageHeight="1100" math="0" shadow="0">
            <root>
                <mxCell id="0"/>
                <mxCell id="1" parent="0"/>
                <mxCell id="5" style="edgeStyle=none;html=1;entryX=0;entryY=0.5;entryDx=0;entryDy=0;" edge="1" parent="1" source="2" target="3">
                    <mxGeometry relative="1" as="geometry"/>
                </mxCell>
                <mxCell id="6" value="GET /crawle?url=www.example.com" style="edgeLabel;html=1;align=center;verticalAlign=middle;resizable=0;points=[];" vertex="1" connectable="0" parent="5">
                    <mxGeometry x="-0.0996" y="1" relative="1" as="geometry">
                        <mxPoint as="offset"/>
                    </mxGeometry>
                </mxCell>
                <mxCell id="2" value="FE" style="rounded=0;whiteSpace=wrap;html=1;fontSize=15;" vertex="1" parent="1">
                    <mxGeometry x="140" y="140" width="70" height="50" as="geometry"/>
                </mxCell>
                <mxCell id="3" value="BE" style="rounded=0;whiteSpace=wrap;html=1;fontSize=15;" vertex="1" parent="1">
                    <mxGeometry x="425" y="140" width="70" height="50" as="geometry"/>
                </mxCell>
                <mxCell id="10" value="example.com&lt;br&gt;WWW server" style="rounded=0;whiteSpace=wrap;html=1;fontSize=15;" vertex="1" parent="1">
                    <mxGeometry x="590" y="140" width="100" height="50" as="geometry"/>
                </mxCell>
                <mxCell id="16" style="edgeStyle=none;html=1;fontSize=10;" edge="1" parent="1" source="12">
                    <mxGeometry relative="1" as="geometry">
                        <mxPoint x="640" y="240" as="targetPoint"/>
                    </mxGeometry>
                </mxCell>
                <mxCell id="12" value="Crawler pobiera cały dostępny kontent HTML ze strony głównej i jej podstron." style="rounded=0;whiteSpace=wrap;html=1;dashed=1;sketch=0;fontSize=10;" vertex="1" parent="1">
                    <mxGeometry x="400" y="210" width="120" height="60" as="geometry"/>
                </mxCell>
                <mxCell id="13" value="" style="endArrow=none;html=1;fontSize=10;entryX=0.5;entryY=1;entryDx=0;entryDy=0;" edge="1" parent="1" target="10">
                    <mxGeometry width="50" height="50" relative="1" as="geometry">
                        <mxPoint x="640" y="430" as="sourcePoint"/>
                        <mxPoint x="620" y="210" as="targetPoint"/>
                        <Array as="points">
                            <mxPoint x="640" y="440"/>
                        </Array>
                    </mxGeometry>
                </mxCell>
                <mxCell id="14" value="" style="endArrow=none;html=1;fontSize=10;entryX=0.5;entryY=1;entryDx=0;entryDy=0;exitX=0.5;exitY=0;exitDx=0;exitDy=0;" edge="1" parent="1" source="12" target="3">
                    <mxGeometry width="50" height="50" relative="1" as="geometry">
                        <mxPoint x="570" y="260" as="sourcePoint"/>
                        <mxPoint x="620" y="210" as="targetPoint"/>
                    </mxGeometry>
                </mxCell>
                <mxCell id="18" style="edgeStyle=none;html=1;fontSize=10;" edge="1" parent="1">
                    <mxGeometry relative="1" as="geometry">
                        <mxPoint x="460" y="320" as="targetPoint"/>
                        <mxPoint x="640" y="320" as="sourcePoint"/>
                    </mxGeometry>
                </mxCell>
                <mxCell id="20" value="GPT-4o API" style="rounded=0;whiteSpace=wrap;html=1;fontSize=15;" vertex="1" parent="1">
                    <mxGeometry x="710" y="140" width="100" height="50" as="geometry"/>
                </mxCell>
                <mxCell id="21" value="Skonfigurowany uprzednio odpowiednim promptem.&lt;br&gt;&amp;nbsp;Zdefiniowanie &lt;b&gt;kluczowych informacji&lt;/b&gt;&amp;nbsp;oraz &lt;b&gt;możliwych akcji&amp;nbsp;&lt;/b&gt;" style="rounded=0;whiteSpace=wrap;html=1;dashed=1;sketch=0;fontSize=10;" vertex="1" parent="1">
                    <mxGeometry x="690" y="200" width="140" height="70" as="geometry"/>
                </mxCell>
                <mxCell id="23" style="edgeStyle=none;html=1;fontSize=10;" edge="1" parent="1">
                    <mxGeometry relative="1" as="geometry">
                        <mxPoint x="760" y="350" as="targetPoint"/>
                        <mxPoint x="460" y="350" as="sourcePoint"/>
                    </mxGeometry>
                </mxCell>
                <mxCell id="28" value="Wyciągnij &lt;b&gt;kluczowe informacje &lt;/b&gt;oraz&lt;b&gt; &lt;br&gt;możliwe akcje &lt;/b&gt;z tych plików html&amp;nbsp;" style="edgeLabel;html=1;align=center;verticalAlign=middle;resizable=0;points=[];fontSize=8;" vertex="1" connectable="0" parent="23">
                    <mxGeometry x="-0.2601" y="2" relative="1" as="geometry">
                        <mxPoint x="21" as="offset"/>
                    </mxGeometry>
                </mxCell>
                <mxCell id="26" value="" style="endArrow=none;html=1;fontSize=8;entryX=0.5;entryY=1;entryDx=0;entryDy=0;exitX=0.5;exitY=0;exitDx=0;exitDy=0;" edge="1" parent="1" source="21" target="20">
                    <mxGeometry width="50" height="50" relative="1" as="geometry">
                        <mxPoint x="740" y="300" as="sourcePoint"/>
                        <mxPoint x="790" y="250" as="targetPoint"/>
                    </mxGeometry>
                </mxCell>
                <mxCell id="29" value="&amp;lt;html&amp;gt;" style="shape=note2;boundedLbl=1;whiteSpace=wrap;html=1;size=13;verticalAlign=top;align=center;sketch=0;fontSize=8;" vertex="1" parent="1">
                    <mxGeometry x="680" y="320" width="40" height="40" as="geometry"/>
                </mxCell>
                <mxCell id="30" value="" style="endArrow=none;html=1;fontSize=8;entryX=0.508;entryY=1.055;entryDx=0;entryDy=0;entryPerimeter=0;exitX=0.493;exitY=0;exitDx=0;exitDy=0;exitPerimeter=0;" edge="1" parent="1" source="38" target="12">
                    <mxGeometry width="50" height="50" relative="1" as="geometry">
                        <mxPoint x="461" y="430" as="sourcePoint"/>
                        <mxPoint x="700" y="290" as="targetPoint"/>
                    </mxGeometry>
                </mxCell>
                <mxCell id="32" value="&amp;lt;html&amp;gt;" style="shape=note2;boundedLbl=1;whiteSpace=wrap;html=1;size=13;verticalAlign=top;align=center;sketch=0;fontSize=8;" vertex="1" parent="1">
                    <mxGeometry x="480" y="290" width="40" height="40" as="geometry"/>
                </mxCell>
                <mxCell id="33" style="edgeStyle=none;html=1;fontSize=10;" edge="1" parent="1">
                    <mxGeometry relative="1" as="geometry">
                        <mxPoint x="460" y="380" as="targetPoint"/>
                        <mxPoint x="760" y="380" as="sourcePoint"/>
                    </mxGeometry>
                </mxCell>
                <mxCell id="34" value="&lt;b&gt;Kluczowe informacje &lt;/b&gt;oraz&lt;b&gt; możliwe akcje&amp;nbsp;&lt;/b&gt;" style="edgeLabel;html=1;align=center;verticalAlign=middle;resizable=0;points=[];fontSize=8;" vertex="1" connectable="0" parent="33">
                    <mxGeometry x="-0.2601" y="2" relative="1" as="geometry">
                        <mxPoint x="-52" y="-2" as="offset"/>
                    </mxGeometry>
                </mxCell>
                <mxCell id="35" style="edgeStyle=none;html=1;fontSize=10;" edge="1" parent="1">
                    <mxGeometry relative="1" as="geometry">
                        <mxPoint x="170" y="390" as="targetPoint"/>
                        <mxPoint x="460" y="390" as="sourcePoint"/>
                    </mxGeometry>
                </mxCell>
                <mxCell id="36" value="&lt;b&gt;Kluczowe informacje &lt;/b&gt;oraz&lt;b&gt; możliwe akcje&amp;nbsp;&lt;/b&gt;" style="edgeLabel;html=1;align=center;verticalAlign=middle;resizable=0;points=[];fontSize=8;" vertex="1" connectable="0" parent="35">
                    <mxGeometry x="-0.2601" y="2" relative="1" as="geometry">
                        <mxPoint x="-52" y="-2" as="offset"/>
                    </mxGeometry>
                </mxCell>
                <mxCell id="37" value="" style="endArrow=none;html=1;fontSize=8;entryX=0.449;entryY=0.999;entryDx=0;entryDy=0;entryPerimeter=0;" edge="1" parent="1" target="2">
                    <mxGeometry width="50" height="50" relative="1" as="geometry">
                        <mxPoint x="171" y="440" as="sourcePoint"/>
                        <mxPoint x="390" y="280" as="targetPoint"/>
                    </mxGeometry>
                </mxCell>
                <mxCell id="38" value="Dalsza interakcje usera z czatem. Czat może udzielać odpowiedzi na pytania usera na podstawie informacji z plikow HTML lub może szukać na stronie elementów np. formularzy, które backend powinien wypełnić danymi od usera oraz submitów, które backend ma kliknąć, aby na stronie docelowej (tu example.com) wykonać akcje zlecone przez usera." style="rounded=0;whiteSpace=wrap;html=1;dashed=1;sketch=0;fontSize=10;" vertex="1" parent="1">
                    <mxGeometry x="170" y="410" width="590" height="90" as="geometry"/>
                </mxCell>
                <mxCell id="48" value="" style="endArrow=none;html=1;fontSize=8;entryX=0.5;entryY=1;entryDx=0;entryDy=0;exitX=1;exitY=0;exitDx=0;exitDy=0;" edge="1" parent="1" source="38" target="21">
                    <mxGeometry width="50" height="50" relative="1" as="geometry">
                        <mxPoint x="760" y="430" as="sourcePoint"/>
                        <mxPoint x="600" y="290" as="targetPoint"/>
                    </mxGeometry>
                </mxCell>
            </root>
        </mxGraphModel>
    </diagram>
</mxfile>